<svg xmlns="http://www.w3.org/2000/svg" xmlns:xlink="http://www.w3.org/1999/xlink" width="31.251953125" height="31.230224609375" viewBox="0 0 31.251953125 31.230224609375" fill="none">
<path d="M15.626 31.2303C6.99731 31.2303 0 24.2378 0 15.6151C0 6.99245 6.99731 0 15.626 0C24.2546 0 31.2519 6.99245 31.2519 15.6151C31.2519 24.2378 24.2546 31.2303 15.626 31.2303Z"   fill="#FFEBE4" >
</path>
<path d="M20.0107 13.1281C20.0105 10.7067 18.0474 8.74612 15.6259 8.74609L15.6259 8.74609C13.2056 8.74612 11.2411 10.7082 11.2411 13.1285L11.2411 13.1286C11.245 13.4031 11.3426 13.6388 11.534 13.8357Q11.8293 14.1228 12.2411 14.1286L14.1945 14.1286C14.469 14.1247 14.7047 14.0271 14.9016 13.8357Q15.1887 13.5404 15.1945 13.1286L15.1945 13.1285C15.1945 12.8903 15.3877 12.6982 15.6259 12.6981L15.6259 12.6981L15.6261 12.6981C15.8637 12.6982 16.0573 12.8909 16.0573 13.1285L16.0573 13.1286L20.0107 13.1281Z" fill-rule="evenodd"  fill="#F7931A" >
</path>
<path d="M12.9101 17.3221C11.2919 17.3221 9.98022 18.6329 9.98022 20.25L11.9336 20.25C11.9336 19.711 12.3707 19.2741 12.9101 19.2741L12.9101 17.3221ZM12.9101 17.3221L18.342 17.3221C19.9602 17.3221 21.2719 18.6329 21.2719 20.25L19.3185 20.25C19.3185 19.711 18.8814 19.2741 18.342 19.2741L18.342 19.274C12.9101 17.3221 12.9101 19.274 12.9101 19.274L12.9101 17.3221ZM10.9568 21.6187C10.4176 21.6187 9.98025 21.1818 9.98022 20.6428L11.9335 20.6428C11.9334 21.1818 11.4961 21.6187 10.9568 21.6187ZM11.9333 20.6427L11.9335 20.6427L11.9335 20.6428L11.9333 20.6427ZM11.9333 20.6427C11.9108 20.6382 9.99164 20.25 11.9335 20.25L9.98022 20.25L9.98022 20.6427L11.9333 20.6427ZM21.2719 20.6428L19.3186 20.6428C19.3186 21.1818 19.756 21.6187 20.2952 21.6187C20.8345 21.6187 21.2718 21.1818 21.2719 20.6428ZM21.2719 20.25L21.2719 20.6427L19.3186 20.6427L19.3186 20.25L21.2719 20.25Z" fill-rule="evenodd"  fill="#F7931A" >
</path>
</svg>
