<svg xmlns="http://www.w3.org/2000/svg" xmlns:xlink="http://www.w3.org/1999/xlink" width="31.251953125" height="31.230224609375" viewBox="0 0 31.251953125 31.230224609375" fill="none">
<path d="M15.626 31.2303C6.99731 31.2303 0 24.2378 0 15.6151C0 6.99245 6.99731 0 15.626 0C24.2546 0 31.2519 6.99245 31.2519 15.6151C31.2519 24.2378 24.2546 31.2303 15.626 31.2303Z"   fill="#EBECFF" >
</path>
<path d="M19.3929 14.7354C19.9458 14.7354 20.3931 15.1834 20.3931 15.7356L20.3931 20.1633C20.3931 20.7161 19.9458 21.1635 19.3929 21.1635L12.0536 21.1635C11.5007 21.1635 11.0533 20.7161 11.0533 20.1633L11.0533 15.7356C11.0533 15.1834 11.5007 14.7354 12.0536 14.7354C12.0536 14.7354 11.0533 14.7354 19.3929 14.7354Z" stroke="rgba(159, 157, 243, 1)" stroke-width="2" stroke-linejoin="round"  >
</path>
<path d="M16.7467 17.4464L16.7467 18.4317L14.7935 18.4317L14.7935 17.4464L16.7467 17.4464ZM14.7935 18.4318C14.7935 18.9708 15.2308 19.4077 15.7701 19.4077C16.3094 19.4077 16.7467 18.9708 16.7467 18.4318L14.7935 18.4318ZM16.7467 17.4464C16.7467 16.9074 16.3094 16.4705 15.7701 16.4705C15.2308 16.4705 14.7935 16.9074 14.7935 17.4464L14.7935 17.4464L14.7935 17.4464L16.7467 17.4464Z" fill-rule="evenodd"  fill="#9F9DF3" >
</path>
<path d="M15.3991 9.09092C13.781 9.09092 12.4693 10.4016 12.4692 12.0186L14.4225 12.0186C14.4138 12.0186 14.4053 12.0187 14.3967 12.0188L12.4692 12.0188L12.4692 14.3365L14.4224 14.3365L14.4225 14.3366L12.4692 14.3366C12.4693 14.8756 12.9066 15.3125 13.4459 15.3125C13.9851 15.3125 14.4224 14.8756 14.4225 14.3366L14.4225 14.3365L14.4224 14.3365C14.4087 14.3202 12.4933 12.039 14.3967 12.0188L14.4226 12.0188C14.4226 11.4797 14.8597 11.0429 15.3991 11.0429L15.3991 9.09092ZM15.3991 9.09092L16.7984 9.09092L16.7984 11.0428C15.3991 9.09092 15.3991 11.0428 15.3991 11.0428L15.3991 9.09092ZM16.7984 9.09092C18.4166 9.09092 19.7283 10.4017 19.7283 12.0188L19.7283 12.0188L19.7283 12.0187L17.775 12.0187L17.775 12.0188L17.775 12.0188C17.775 11.4797 17.3378 11.0429 16.7984 11.0429L16.7984 9.09092ZM17.775 12.1313L17.775 12.0188L19.7283 12.0188L19.7283 12.1313L17.775 12.1313ZM17.775 12.1314C17.7751 12.6704 18.2124 13.1073 18.7517 13.1073C19.2909 13.1073 19.7282 12.6704 19.7283 12.1314L17.775 12.1314Z" fill-rule="evenodd"  fill="#9F9DF3" >
</path>
</svg>
