<svg xmlns="http://www.w3.org/2000/svg" xmlns:xlink="http://www.w3.org/1999/xlink" width="383.949951171875" height="183.9488525390625" viewBox="0 0 383.949951171875 183.9488525390625" fill="none"><g opacity="1"  transform="translate(0 0)"><mask id="bg-mask-0" fill="white"><use transform="translate(0 0)" xlink:href="#path_0"></use></mask><g mask="url(#bg-mask-0)" ><g opacity="1"  transform="translate(0.025634765625 8.9744873046875)"><g opacity="1"  transform="translate(0 0)"><path id="路径 1" fill-rule="evenodd" style="fill:#4B75FF" opacity="1" d="M82.8299 165.732L300.43 165.927C346.18 165.968 383.438 128.922 383.657 83.1722L383.657 83.1722C383.876 37.4228 346.974 0.309971 301.224 0.269006L83.6239 0.0741662C37.8739 0.0332015 0.616229 37.0796 0.396959 82.8291L0.396959 82.8291C0.177688 128.579 37.08 165.691 82.8299 165.732Z"></path></g></g><path id="路径 1" fill-rule="evenodd" style="fill:#FFFFFF" opacity="1" d="M145.091 123.706L129.533 108.143C129.386 108 129.233 107.865 129.073 107.737C128.914 107.608 128.749 107.488 128.579 107.374C128.408 107.261 128.233 107.156 128.053 107.059C127.872 106.962 127.688 106.874 127.5 106.793C127.604 106.637 127.707 106.48 127.808 106.322C127.909 106.164 128.009 106.004 128.107 105.845C128.206 105.685 128.302 105.524 128.398 105.362C128.493 105.2 128.587 105.037 128.679 104.874C128.772 104.71 128.863 104.546 128.952 104.381C129.041 104.216 129.129 104.05 129.216 103.883C129.302 103.716 129.387 103.549 129.47 103.38C129.553 103.212 129.635 103.043 129.715 102.873C129.795 102.703 129.874 102.533 129.951 102.361C130.028 102.19 130.103 102.018 130.177 101.845C130.251 101.673 130.323 101.499 130.394 101.325C130.464 101.151 130.533 100.977 130.601 100.801C130.668 100.626 130.734 100.45 130.798 100.274C130.862 100.097 130.925 99.92 130.986 99.7424C131.047 99.5647 131.106 99.3866 131.164 99.2079C131.222 99.0292 131.278 98.8499 131.332 98.6702C131.386 98.4904 131.439 98.3101 131.49 98.1294C131.541 97.9487 131.591 97.7675 131.639 97.5859C131.686 97.4042 131.732 97.2222 131.777 97.0397C131.821 96.8572 131.864 96.6743 131.905 96.491C131.946 96.3078 131.985 96.1241 132.023 95.9401C132.061 95.7562 132.097 95.5718 132.131 95.3872C132.165 95.2025 132.198 95.0176 132.229 94.8324C132.26 94.647 132.289 94.4616 132.316 94.2757C132.344 94.09 132.369 93.904 132.393 93.7177C132.417 93.5314 132.44 93.345 132.46 93.1583C132.481 92.9717 132.5 92.7848 132.517 92.5978C132.534 92.4107 132.55 92.2235 132.564 92.0363C132.577 91.849 132.589 91.6616 132.6 91.4741C132.61 91.2865 132.618 91.099 132.625 90.9112C132.632 90.7236 132.637 90.5358 132.641 90.3481C132.644 90.1603 132.646 89.9725 132.646 89.7847C132.646 72.7658 118.853 58.9745 101.835 58.9745C84.8183 58.9745 71.0256 72.7675 71.0256 89.7848C71.0256 106.802 84.8183 120.595 101.835 120.595C108.128 120.595 113.968 118.685 118.848 115.449C119.165 116.181 119.594 116.881 120.191 117.479L135.755 133.04C135.832 133.117 135.91 133.191 135.99 133.264C136.07 133.336 136.152 133.407 136.235 133.476C136.319 133.544 136.404 133.61 136.491 133.675C136.578 133.739 136.666 133.801 136.756 133.861C136.845 133.922 136.937 133.979 137.029 134.034C137.122 134.09 137.216 134.143 137.311 134.195C137.407 134.245 137.503 134.294 137.601 134.34C137.698 134.387 137.797 134.431 137.897 134.472C137.997 134.513 138.097 134.551 138.199 134.588C138.301 134.624 138.403 134.659 138.507 134.69C138.61 134.721 138.714 134.75 138.819 134.776C138.924 134.802 139.029 134.826 139.135 134.848C139.241 134.868 139.348 134.887 139.454 134.903C139.561 134.918 139.669 134.932 139.776 134.942C139.884 134.953 139.991 134.961 140.099 134.966C140.207 134.971 140.315 134.974 140.423 134.974C140.531 134.974 140.639 134.971 140.747 134.966C140.855 134.961 140.963 134.953 141.07 134.942C141.178 134.932 141.285 134.918 141.392 134.903C141.499 134.887 141.605 134.868 141.711 134.848C141.817 134.826 141.922 134.802 142.027 134.776C142.132 134.75 142.236 134.721 142.339 134.69C142.443 134.659 142.545 134.624 142.647 134.588C142.749 134.551 142.85 134.513 142.949 134.472C143.049 134.431 143.148 134.387 143.246 134.34C143.343 134.294 143.44 134.245 143.535 134.195C143.63 134.143 143.724 134.09 143.817 134.034C143.91 133.979 144.001 133.922 144.091 133.861C144.18 133.801 144.269 133.739 144.355 133.675C144.442 133.61 144.527 133.544 144.611 133.476C144.694 133.407 144.776 133.336 144.856 133.264C144.936 133.191 145.014 133.117 145.091 133.04C145.167 132.964 145.242 132.886 145.314 132.806C145.387 132.726 145.457 132.644 145.526 132.561C145.595 132.477 145.661 132.392 145.725 132.305C145.79 132.218 145.852 132.13 145.912 132.04C145.972 131.951 146.03 131.859 146.085 131.767C146.141 131.674 146.194 131.58 146.245 131.485C146.297 131.39 146.345 131.293 146.391 131.195C146.438 131.098 146.482 130.999 146.523 130.899C146.564 130.799 146.602 130.699 146.639 130.597C146.676 130.495 146.709 130.393 146.741 130.289C146.773 130.186 146.801 130.082 146.827 129.977C146.853 129.872 146.877 129.767 146.899 129.661C146.92 129.555 146.938 129.449 146.954 129.342C146.97 129.235 146.983 129.128 146.993 129.02C147.004 128.913 147.012 128.805 147.017 128.697C147.022 128.589 147.025 128.481 147.025 128.373C147.025 128.265 147.022 128.157 147.017 128.049C147.012 127.941 147.004 127.834 146.993 127.726C146.983 127.619 146.97 127.512 146.954 127.405C146.938 127.298 146.92 127.191 146.899 127.085C146.877 126.98 146.853 126.874 146.827 126.769C146.801 126.665 146.773 126.56 146.741 126.457C146.709 126.354 146.676 126.251 146.639 126.149C146.602 126.048 146.564 125.947 146.523 125.847C146.482 125.747 146.438 125.649 146.391 125.551C146.345 125.453 146.297 125.357 146.245 125.262C146.194 125.166 146.141 125.073 146.085 124.98C146.03 124.887 145.972 124.796 145.912 124.706C145.852 124.616 145.79 124.528 145.725 124.441C145.661 124.355 145.595 124.269 145.526 124.186C145.457 124.103 145.387 124.021 145.314 123.941C145.242 123.861 145.167 123.783 145.091 123.706ZM101.835 111.792C89.6796 111.792 79.8288 101.94 79.8288 89.7863C79.8288 77.6308 89.6796 67.7796 101.835 67.7796C113.992 67.7796 123.841 77.6308 123.841 89.7863C123.841 101.94 113.992 111.792 101.835 111.792Z"></path><g opacity="1" transform="translate(170.025634765625 39.9744873046875)"><a xlink:href="https://" xlink:title="跳转" target="_blank"><text><tspan x="0" y="83.52" font-size="72" line-height="0" fill="#FFFFFF" opacity="1" font-family="SourceHanSansCN-Bold" font-weight="Bold" letter-spacing="0" >搜索</tspan></text></a></g></g></g><defs><rect id="path_0" x="0" y="0" width="383.95" height="183.9488983154297" rx="0" ry="0"/></defs></svg>