<svg xmlns="http://www.w3.org/2000/svg" xmlns:xlink="http://www.w3.org/1999/xlink" width="31.251953125" height="31.230224609375" viewBox="0 0 31.251953125 31.230224609375" fill="none">
<path d="M15.626 31.2303C6.99731 31.2303 0 24.2378 0 15.6151C0 6.99245 6.99731 0 15.626 0C24.2546 0 31.2519 6.99245 31.2519 15.6151C31.2519 24.2378 24.2546 31.2303 15.626 31.2303Z"   fill="#DEF5E9" >
</path>
<path d="M9.49838 10.7725C9.58348 10.7483 9.67332 10.7354 9.7662 10.7354C9.65161 10.7354 9.56392 10.7488 9.49838 10.7725ZM9.49838 10.7725C9.0053 10.9509 9.7662 11.7113 9.7662 11.7113L8.78957 11.7113C8.78957 11.2651 9.0892 10.8888 9.49838 10.7725ZM21.4858 11.706L21.4858 10.7354C22.0251 10.7354 22.4623 11.1723 22.4623 11.7113C21.5281 10.7778 21.4875 11.6302 21.4858 11.706ZM21.4858 11.7114L21.4858 11.706L21.4857 11.7113L21.4857 10.7354L9.76627 10.7354L9.76627 11.7114L8.78947 11.7114L8.78947 20.4949L9.76627 20.4949L9.76627 21.4708L21.4857 21.4708L21.4857 21.4709C22.0251 21.4709 22.4623 21.034 22.4623 20.495L21.4858 20.495L21.4858 20.4949L22.4621 20.4949L22.4621 11.7114L21.4858 11.7114ZM20.5089 12.5292L20.5089 11.7114L21.4858 11.7114L21.4858 12.6872C21.1506 12.6314 20.8251 12.5788 20.5089 12.5292ZM11.5322 11.9115L10.3917 10.9617L9.76646 11.7114L9.76627 11.7114L9.76627 11.7116L9.26185 12.3165C9.14097 12.3486 9.14097 12.4614 9.14097 12.4614L9.26185 12.3165C9.35003 12.293 9.50253 12.3125 9.76627 12.45L9.76627 12.6872C9.76627 12.6872 9.76627 12.6096 9.85923 12.5008C9.90382 12.5262 9.95118 12.5546 10.0015 12.5864C9.61303 14.236 10.2098 17.7947 10.5431 19.519L9.76627 19.519L9.76627 20.4949L10.7427 20.4949C10.7427 20.4949 10.6588 20.1174 10.5431 19.519L20.5089 19.519L20.5089 20.4949L21.4858 20.4949L21.4858 19.519L20.5089 19.519L20.5089 12.5292C15.6511 11.7678 12.99 11.7273 11.5322 11.9115ZM15.691 15.3747L11.5322 11.9115C10.7577 12.0093 10.3229 12.1705 10.0787 12.3208C10.2151 11.9389 10.4283 11.7114 10.7427 11.7114L9.76646 11.7114L9.76627 11.7116L9.76627 12.45C9.79584 12.4654 9.8268 12.4823 9.85923 12.5008C9.90552 12.4466 9.97486 12.3847 10.0787 12.3208C10.0496 12.4025 10.0239 12.4912 10.0015 12.5864C10.772 13.072 12.2324 14.3273 15.0005 17.3409L15.0008 17.3405L15.0008 17.3408C15.333 17.6175 15.8078 17.6428 16.1677 17.403L15.626 16.5911L15.6257 16.5911L15.6259 16.5908L16.1679 17.4031C16.1679 17.4031 15.9555 16.7022 16.067 16.0619L16.2511 15.8411L16.1498 15.7567C16.4035 15.0992 17.1509 14.6636 19.0975 15.4513L19.0975 15.4513L19.0975 15.4513L19.0976 15.4514L19.0976 15.4513C19.5464 15.1523 19.6676 14.5464 19.3684 14.0979C19.0692 13.6495 18.4629 13.5283 18.0141 13.8272L18.1808 14.0772L18.014 13.8272L15.691 15.3747ZM15.691 15.3747L16.1498 15.7567C16.1121 15.8546 16.0852 15.9574 16.067 16.0619L15.6259 16.5908L15.0843 15.7789L15.691 15.3747ZM18.1808 14.0772L19.0975 15.4513L19.0975 15.4513L19.0976 15.4513L18.1808 14.0772ZM15.6257 16.5911C15.6108 16.5912 15.0009 16.6002 15.0008 17.3405L15.6257 16.5911ZM21.4858 20.495L21.4857 20.495L21.4857 21.4708L21.4858 21.4708L21.4858 20.495ZM9.7662 21.4709L9.7662 20.495L8.78957 20.495C8.78957 21.034 9.22681 21.4709 9.7662 21.4709Z" fill-rule="evenodd"  fill="#5FC88F" >
</path>
</svg>
